<svg xmlns="http://www.w3.org/2000/svg" viewBox="0 0 1024 1024" width="100%" height="100%" preserveAspectRatio="xMidYMid meet">
<defs>
<linearGradient id="gEW" x1="0" y1="0" x2="0.65" y2="1">
<stop offset="0%" stop-color="#e89a45"/><stop offset="55%" stop-color="#8a3d18"/><stop offset="100%" stop-color="#2b0f07"/></linearGradient>
<radialGradient id="glEW" cx="32%" cy="6%" r="80%">
<stop offset="0%" stop-color="#ffffff" stop-opacity=".26"/><stop offset="100%" stop-color="#ffffff" stop-opacity="0"/></radialGradient>
<linearGradient id="pap" x1="0" y1="0" x2="1" y2="1">
<stop offset="0%" stop-color="#fffaf0"/><stop offset="46%" stop-color="#f2e7d2"/><stop offset="100%" stop-color="#cdbb9d"/></linearGradient>
<linearGradient id="lid" x1="0" y1="0" x2="0" y2="1">
<stop offset="0%" stop-color="#fffdf7"/><stop offset="100%" stop-color="#e2d5ba"/></linearGradient>
<linearGradient id="rib" x1="0" y1="0" x2="1" y2="0">
<stop offset="0%" stop-color="#a95c36"/><stop offset="38%" stop-color="#d98a5c"/><stop offset="62%" stop-color="#c8794f"/><stop offset="100%" stop-color="#9c5330"/></linearGradient>
<linearGradient id="key" x1="0" y1="0" x2="1" y2="1">
<stop offset="0%" stop-color="#ffdc8a"/><stop offset="100%" stop-color="#c98d22"/></linearGradient>
<linearGradient id="shn" x1="0" y1="0" x2="1" y2="1">
<stop offset="0%" stop-color="#fff" stop-opacity=".55"/><stop offset="55%" stop-color="#fff" stop-opacity="0"/></linearGradient>
</defs>
<rect x="0" y="0" width="1024" height="1024" fill="url(#gEW)"/>
<g id="art" transform="translate(36.38,47.53) scale(1.8579)">

<circle cx="256" cy="250" r="142" fill="#fff" opacity=".11"/>
<line x1="256.0" y1="100.0" x2="256.0" y2="60.0" stroke="#e0a83a" stroke-width="10" stroke-linecap="round" opacity="0.55"/><line x1="178.0" y1="114.9" x2="167.0" y2="95.8" stroke="#e0a83a" stroke-width="10" stroke-linecap="round" opacity="0.55"/><line x1="126.1" y1="175.0" x2="91.5" y2="155.0" stroke="#e0a83a" stroke-width="10" stroke-linecap="round" opacity="0.55"/><line x1="100.0" y1="250.0" x2="78.0" y2="250.0" stroke="#e0a83a" stroke-width="10" stroke-linecap="round" opacity="0.55"/><line x1="126.1" y1="325.0" x2="91.5" y2="345.0" stroke="#e0a83a" stroke-width="10" stroke-linecap="round" opacity="0.55"/><line x1="178.0" y1="385.1" x2="167.0" y2="404.2" stroke="#e0a83a" stroke-width="10" stroke-linecap="round" opacity="0.55"/><line x1="256.0" y1="400.0" x2="256.0" y2="440.0" stroke="#e0a83a" stroke-width="10" stroke-linecap="round" opacity="0.55"/><line x1="334.0" y1="385.1" x2="345.0" y2="404.2" stroke="#e0a83a" stroke-width="10" stroke-linecap="round" opacity="0.55"/><line x1="385.9" y1="325.0" x2="420.5" y2="345.0" stroke="#e0a83a" stroke-width="10" stroke-linecap="round" opacity="0.55"/><line x1="412.0" y1="250.0" x2="434.0" y2="250.0" stroke="#e0a83a" stroke-width="10" stroke-linecap="round" opacity="0.55"/><line x1="385.9" y1="175.0" x2="420.5" y2="155.0" stroke="#e0a83a" stroke-width="10" stroke-linecap="round" opacity="0.55"/><line x1="334.0" y1="114.9" x2="345.0" y2="95.8" stroke="#e0a83a" stroke-width="10" stroke-linecap="round" opacity="0.55"/>

<!-- body -->
<rect x="146" y="196" width="220" height="150" rx="9" fill="url(#pap)"/>
<path d="M146 196 h34 v150 h-34 z" fill="#000" opacity=".10"/>
<path d="M332 196 h34 v150 h-34 z" fill="#000" opacity=".16"/>

<!-- lid -->
<path d="M132 184 L256 146 L380 184 L256 222 Z" fill="url(#lid)"/>
<path d="M132 184 L256 222 L256 146 Z" fill="#000" opacity=".05"/>
<rect x="136" y="184" width="240" height="30" rx="9" fill="url(#lid)"/>
<rect x="136" y="206" width="240" height="9" fill="#000" opacity=".12"/>

<!-- ribbon -->
<rect x="236" y="184" width="40" height="162" fill="url(#rib)"/>
<rect x="136" y="192" width="240" height="17" rx="4" fill="url(#rib)"/>
<rect x="236" y="184" width="9" height="162" fill="#fff" opacity=".16"/>

<!-- bow -->
<path d="M256 176 C232 148 196 150 200 172 C203 188 236 186 256 180 Z" fill="url(#rib)"/>
<path d="M256 176 C280 148 316 150 312 172 C309 188 276 186 256 180 Z" fill="url(#rib)"/>
<circle cx="256" cy="179" r="13" fill="#d98a5c"/>
<circle cx="252" cy="175" r="5" fill="#fff" opacity=".35"/>

<!-- the question, cut into the paper -->
<text x="258" y="318" font-family="Georgia,'Times New Roman',serif" font-size="118" font-weight="700"
      fill="#3a2314" opacity=".20" text-anchor="middle">?</text>
<text x="255" y="316" font-family="Georgia,'Times New Roman',serif" font-size="118" font-weight="700"
      fill="#2a1810" opacity=".95" text-anchor="middle">?</text>

<!-- light falling across the front -->
<path d="M146 196 h220 v150 h-220 z" fill="url(#shn)" opacity=".5"/>

<!-- the key on the ground -->
<g transform="translate(336,362) rotate(-8)">
  <circle cx="13" cy="13" r="13" fill="url(#key)"/>
  <circle cx="13" cy="13" r="5.5" fill="#2b0f07"/>
  <rect x="24" y="9" width="42" height="8" rx="3" fill="url(#key)"/>
  <rect x="52" y="9" width="7" height="16" rx="2.5" fill="url(#key)"/>
  <rect x="62" y="9" width="6" height="12" rx="2.5" fill="url(#key)"/>
</g>

</g>
<rect x="0" y="0" width="1024" height="1024" fill="url(#glEW)"/>
</svg>