<svg xmlns="http://www.w3.org/2000/svg" viewBox="0 0 1024 1024" role="img" aria-label="family-esposavor">
<rect width="1024" height="1024" rx="232" fill="#3A1220"/>
<!-- far hill + distant hop field growing a beer -->
<path d="M0,600 C220,530 480,560 720,520 C880,494 970,506 1024,498 L1024,1024 L0,1024 Z" fill="#5A2438"/>
<rect x="93" y="535" width="6" height="120" rx="3" fill="#6A4B33"/><path d="M96,655 C80,613.0 112,577.0 96,543" fill="none" stroke="#7BA86A" stroke-width="7"/><ellipse cx="104" cy="557.0" rx="9" ry="12" fill="#7BA86A"/><ellipse cx="88" cy="590.6" rx="9" ry="12" fill="#7BA86A"/><ellipse cx="104" cy="624.2" rx="9" ry="12" fill="#7BA86A"/><rect x="153" y="523" width="6" height="132" rx="3" fill="#6A4B33"/><path d="M156,655 C140,608.8 172,569.2 156,531" fill="none" stroke="#7BA86A" stroke-width="7"/><ellipse cx="164" cy="545.0" rx="9" ry="12" fill="#7BA86A"/><ellipse cx="148" cy="581.96" rx="9" ry="12" fill="#7BA86A"/><ellipse cx="164" cy="618.92" rx="9" ry="12" fill="#7BA86A"/><rect x="213" y="531" width="6" height="124" rx="3" fill="#6A4B33"/><path d="M216,655 C200,611.6 232,574.4 216,539" fill="none" stroke="#7BA86A" stroke-width="7"/><ellipse cx="224" cy="553.0" rx="9" ry="12" fill="#7BA86A"/><ellipse cx="208" cy="587.72" rx="9" ry="12" fill="#7BA86A"/><ellipse cx="224" cy="622.44" rx="9" ry="12" fill="#7BA86A"/><rect x="357" y="527" width="6" height="128" rx="3" fill="#6A4B33"/><path d="M360,655 C344,610.2 376,571.8 360,535" fill="none" stroke="#7BA86A" stroke-width="7"/><ellipse cx="368" cy="549.0" rx="9" ry="12" fill="#7BA86A"/><ellipse cx="352" cy="584.84" rx="9" ry="12" fill="#7BA86A"/><ellipse cx="368" cy="620.6800000000001" rx="9" ry="12" fill="#7BA86A"/><rect x="417" y="537" width="6" height="118" rx="3" fill="#6A4B33"/><path d="M420,655 C404,613.7 436,578.3 420,545" fill="none" stroke="#7BA86A" stroke-width="7"/><ellipse cx="428" cy="559.0" rx="9" ry="12" fill="#7BA86A"/><ellipse cx="412" cy="592.04" rx="9" ry="12" fill="#7BA86A"/><ellipse cx="428" cy="625.08" rx="9" ry="12" fill="#7BA86A"/>

<g>
 <path d="M292,652 C282,620 296,600 288,578" fill="none" stroke="#8A5A36" stroke-width="10" stroke-linecap="round"/>
 <rect x="256" y="496" width="66" height="86" rx="12" fill="#E8A54A"/>
 <path d="M322,516 C346,516 346,560 322,560" fill="none" stroke="#E8A54A" stroke-width="12"/>
 <g fill="#FFF3E0">
  <circle cx="268" cy="496" r="14"/><circle cx="289" cy="490" r="16"/><circle cx="310" cy="496" r="14"/>
  <rect x="256" y="492" width="66" height="14" rx="7"/>
 </g>
 <path d="M272,522 L272,566 M306,522 L306,566" stroke="#ffffff" stroke-width="6" stroke-linecap="round" opacity="0.35"/>
</g>
<rect x="450" y="502" width="4" height="74" rx="2" fill="#C9B45A"/><path d="M452,542.7 C438,535.3 434,520.5 432,513.1" fill="none" stroke="#C9B45A" stroke-width="5" stroke-linecap="round"/><path d="M452,531.6 C466,524.2 470,513.1 472,505.7" fill="none" stroke="#C9B45A" stroke-width="5" stroke-linecap="round"/><path d="M452,502 L452,490" stroke="#E8D48A" stroke-width="4" stroke-linecap="round"/><circle cx="452" cy="486" r="5" fill="#E8D48A"/><rect x="490" y="490" width="4" height="86" rx="2" fill="#C9B45A"/><path d="M492,537.3 C478,528.7 474,511.5 472,502.9" fill="none" stroke="#C9B45A" stroke-width="5" stroke-linecap="round"/><path d="M492,524.4 C506,515.8 510,502.9 512,494.3" fill="none" stroke="#C9B45A" stroke-width="5" stroke-linecap="round"/><path d="M492,490 L492,478" stroke="#E8D48A" stroke-width="4" stroke-linecap="round"/><circle cx="492" cy="474" r="5" fill="#E8D48A"/><rect x="536" y="498" width="4" height="78" rx="2" fill="#C9B45A"/><path d="M538,540.9 C524,533.1 520,517.5 518,509.7" fill="none" stroke="#C9B45A" stroke-width="5" stroke-linecap="round"/><path d="M538,529.2 C552,521.4 556,509.7 558,501.9" fill="none" stroke="#C9B45A" stroke-width="5" stroke-linecap="round"/><path d="M538,498 L538,486" stroke="#E8D48A" stroke-width="4" stroke-linecap="round"/><circle cx="538" cy="482" r="5" fill="#E8D48A"/><rect x="582" y="488" width="4" height="88" rx="2" fill="#C9B45A"/><path d="M584,536.4 C570,527.6 566,510.0 564,501.2" fill="none" stroke="#C9B45A" stroke-width="5" stroke-linecap="round"/><path d="M584,523.2 C598,514.4 602,501.2 604,492.4" fill="none" stroke="#C9B45A" stroke-width="5" stroke-linecap="round"/><path d="M584,488 L584,476" stroke="#E8D48A" stroke-width="4" stroke-linecap="round"/><circle cx="584" cy="472" r="5" fill="#E8D48A"/><rect x="622" y="504" width="4" height="72" rx="2" fill="#C9B45A"/><path d="M624,543.6 C610,536.4 606,522.0 604,514.8" fill="none" stroke="#C9B45A" stroke-width="5" stroke-linecap="round"/><path d="M624,532.8 C638,525.6 642,514.8 644,507.6" fill="none" stroke="#C9B45A" stroke-width="5" stroke-linecap="round"/><path d="M624,504 L624,492" stroke="#E8D48A" stroke-width="4" stroke-linecap="round"/><circle cx="624" cy="488" r="5" fill="#E8D48A"/>
<g>
 <path d="M528,570 C522,552 530,540 526,528" fill="none" stroke="#8A5A36" stroke-width="7" stroke-linecap="round"/>
 <rect x="500" y="474" width="52" height="56" rx="8" fill="none" stroke="#F3E7D3" stroke-width="8"/>
 <rect x="506" y="492" width="40" height="32" rx="5" fill="#C97F2E"/>
 <rect x="512" y="482" width="16" height="12" rx="3" fill="#ffffff" opacity="0.25"/>
</g>
<!-- mid + front hills -->
<path d="M0,680 C260,610 560,646 820,606 C920,592 990,598 1024,594 L1024,1024 L0,1024 Z" fill="#6E3B52"/>
<path d="M0,730 C280,660 600,700 840,660 C950,644 1000,650 1024,646 L1024,1024 L0,1024 Z" fill="#4E7A55"/>
<rect x="34.9" y="691.5" width="10.2" height="51.0" rx="5.1" fill="#7A5138"/><rect x="128.4" y="691.5" width="10.2" height="51.0" rx="5.1" fill="#7A5138"/><rect x="221.9" y="691.5" width="10.2" height="51.0" rx="5.1" fill="#7A5138"/><rect x="315.4" y="691.5" width="10.2" height="51.0" rx="5.1" fill="#7A5138"/><rect x="408.9" y="691.5" width="10.2" height="51.0" rx="5.1" fill="#7A5138"/><rect x="502.4" y="691.5" width="10.2" height="51.0" rx="5.1" fill="#7A5138"/><rect x="595.9" y="691.5" width="10.2" height="51.0" rx="5.1" fill="#7A5138"/><rect x="689.4" y="691.5" width="10.2" height="51.0" rx="5.1" fill="#7A5138"/><rect x="782.9" y="691.5" width="10.2" height="51.0" rx="5.1" fill="#7A5138"/><rect x="876.4" y="691.5" width="10.2" height="51.0" rx="5.1" fill="#7A5138"/><rect x="969.9" y="691.5" width="10.2" height="51.0" rx="5.1" fill="#7A5138"/><path d="M40,700 C65.5,660.9 108.0,660.9 133.5,700 C159.0,660.9 201.5,660.9 227.0,700 C252.5,660.9 295.0,660.9 320.5,700 C346.0,660.9 388.5,660.9 414.0,700 C439.5,660.9 482.0,660.9 507.5,700 C533.0,660.9 575.5,660.9 601.0,700 C626.5,660.9 669.0,660.9 694.5,700 C720.0,660.9 762.5,660.9 788.0,700 C813.5,660.9 856.0,660.9 881.5,700 C907.0,660.9 949.5,660.9 975.0,700" fill="none" stroke="#3C5F44" stroke-width="22.099999999999998" stroke-linecap="round"/><g fill="#C2506E"><circle cx="77.4" cy="713.6" r="9.35"/><circle cx="96.1" cy="713.6" r="9.35"/><circle cx="86.75" cy="727.625" r="9.35"/></g><g fill="#C2506E"><circle cx="170.9" cy="713.6" r="9.35"/><circle cx="189.6" cy="713.6" r="9.35"/><circle cx="180.25" cy="727.625" r="9.35"/></g><g fill="#C2506E"><circle cx="264.4" cy="713.6" r="9.35"/><circle cx="283.1" cy="713.6" r="9.35"/><circle cx="273.75" cy="727.625" r="9.35"/></g><g fill="#C2506E"><circle cx="357.9" cy="713.6" r="9.35"/><circle cx="376.6" cy="713.6" r="9.35"/><circle cx="367.25" cy="727.625" r="9.35"/></g><g fill="#C2506E"><circle cx="451.4" cy="713.6" r="9.35"/><circle cx="470.1" cy="713.6" r="9.35"/><circle cx="460.75" cy="727.625" r="9.35"/></g><g fill="#C2506E"><circle cx="544.9" cy="713.6" r="9.35"/><circle cx="563.6" cy="713.6" r="9.35"/><circle cx="554.25" cy="727.625" r="9.35"/></g><g fill="#C2506E"><circle cx="638.4" cy="713.6" r="9.35"/><circle cx="657.1" cy="713.6" r="9.35"/><circle cx="647.75" cy="727.625" r="9.35"/></g><g fill="#C2506E"><circle cx="731.9" cy="713.6" r="9.35"/><circle cx="750.6" cy="713.6" r="9.35"/><circle cx="741.25" cy="727.625" r="9.35"/></g><g fill="#C2506E"><circle cx="825.4" cy="713.6" r="9.35"/><circle cx="844.1" cy="713.6" r="9.35"/><circle cx="834.75" cy="727.625" r="9.35"/></g><g fill="#C2506E"><circle cx="918.9" cy="713.6" r="9.35"/><circle cx="937.6" cy="713.6" r="9.35"/><circle cx="928.25" cy="727.625" r="9.35"/></g><rect x="4.0" y="800.0" width="12.0" height="60.0" rx="6.0" fill="#7A5138"/><rect x="114.0" y="800.0" width="12.0" height="60.0" rx="6.0" fill="#7A5138"/><rect x="224.0" y="800.0" width="12.0" height="60.0" rx="6.0" fill="#7A5138"/><rect x="334.0" y="800.0" width="12.0" height="60.0" rx="6.0" fill="#7A5138"/><rect x="444.0" y="800.0" width="12.0" height="60.0" rx="6.0" fill="#7A5138"/><rect x="554.0" y="800.0" width="12.0" height="60.0" rx="6.0" fill="#7A5138"/><rect x="664.0" y="800.0" width="12.0" height="60.0" rx="6.0" fill="#7A5138"/><rect x="774.0" y="800.0" width="12.0" height="60.0" rx="6.0" fill="#7A5138"/><rect x="884.0" y="800.0" width="12.0" height="60.0" rx="6.0" fill="#7A5138"/><rect x="994.0" y="800.0" width="12.0" height="60.0" rx="6.0" fill="#7A5138"/><path d="M10,810 C40.0,764.0 90.0,764.0 120.0,810 C150.0,764.0 200.0,764.0 230.0,810 C260.0,764.0 310.0,764.0 340.0,810 C370.0,764.0 420.0,764.0 450.0,810 C480.0,764.0 530.0,764.0 560.0,810 C590.0,764.0 640.0,764.0 670.0,810 C700.0,764.0 750.0,764.0 780.0,810 C810.0,764.0 860.0,764.0 890.0,810 C920.0,764.0 970.0,764.0 1000.0,810" fill="none" stroke="#3C5F44" stroke-width="26.0" stroke-linecap="round"/><g fill="#C2506E"><circle cx="54.0" cy="826.0" r="11.0"/><circle cx="76.0" cy="826.0" r="11.0"/><circle cx="65.0" cy="842.5" r="11.0"/></g><g fill="#C2506E"><circle cx="164.0" cy="826.0" r="11.0"/><circle cx="186.0" cy="826.0" r="11.0"/><circle cx="175.0" cy="842.5" r="11.0"/></g><g fill="#C2506E"><circle cx="274.0" cy="826.0" r="11.0"/><circle cx="296.0" cy="826.0" r="11.0"/><circle cx="285.0" cy="842.5" r="11.0"/></g><g fill="#C2506E"><circle cx="384.0" cy="826.0" r="11.0"/><circle cx="406.0" cy="826.0" r="11.0"/><circle cx="395.0" cy="842.5" r="11.0"/></g><g fill="#C2506E"><circle cx="494.0" cy="826.0" r="11.0"/><circle cx="516.0" cy="826.0" r="11.0"/><circle cx="505.0" cy="842.5" r="11.0"/></g><g fill="#C2506E"><circle cx="604.0" cy="826.0" r="11.0"/><circle cx="626.0" cy="826.0" r="11.0"/><circle cx="615.0" cy="842.5" r="11.0"/></g><g fill="#C2506E"><circle cx="714.0" cy="826.0" r="11.0"/><circle cx="736.0" cy="826.0" r="11.0"/><circle cx="725.0" cy="842.5" r="11.0"/></g><g fill="#C2506E"><circle cx="824.0" cy="826.0" r="11.0"/><circle cx="846.0" cy="826.0" r="11.0"/><circle cx="835.0" cy="842.5" r="11.0"/></g><g fill="#C2506E"><circle cx="934.0" cy="826.0" r="11.0"/><circle cx="956.0" cy="826.0" r="11.0"/><circle cx="945.0" cy="842.5" r="11.0"/></g><rect x="-27.2" y="923.0" width="14.399999999999999" height="72.0" rx="7.199999999999999" fill="#7A5138"/><rect x="104.8" y="923.0" width="14.399999999999999" height="72.0" rx="7.199999999999999" fill="#7A5138"/><rect x="236.8" y="923.0" width="14.399999999999999" height="72.0" rx="7.199999999999999" fill="#7A5138"/><rect x="368.8" y="923.0" width="14.399999999999999" height="72.0" rx="7.199999999999999" fill="#7A5138"/><rect x="500.8" y="923.0" width="14.399999999999999" height="72.0" rx="7.199999999999999" fill="#7A5138"/><rect x="632.8" y="923.0" width="14.399999999999999" height="72.0" rx="7.199999999999999" fill="#7A5138"/><rect x="764.8" y="923.0" width="14.399999999999999" height="72.0" rx="7.199999999999999" fill="#7A5138"/><rect x="896.8" y="923.0" width="14.399999999999999" height="72.0" rx="7.199999999999999" fill="#7A5138"/><rect x="1028.8" y="923.0" width="14.399999999999999" height="72.0" rx="7.199999999999999" fill="#7A5138"/><path d="M-20,935 C16.0,879.8 76.0,879.8 112.0,935 C148.0,879.8 208.0,879.8 244.0,935 C280.0,879.8 340.0,879.8 376.0,935 C412.0,879.8 472.0,879.8 508.0,935 C544.0,879.8 604.0,879.8 640.0,935 C676.0,879.8 736.0,879.8 772.0,935 C808.0,879.8 868.0,879.8 904.0,935 C940.0,879.8 1000.0,879.8 1036.0,935" fill="none" stroke="#3C5F44" stroke-width="31.2" stroke-linecap="round"/><g fill="#C2506E"><circle cx="32.8" cy="954.2" r="13.2"/><circle cx="59.2" cy="954.2" r="13.2"/><circle cx="46.0" cy="974.0" r="13.2"/></g><g fill="#C2506E"><circle cx="164.8" cy="954.2" r="13.2"/><circle cx="191.2" cy="954.2" r="13.2"/><circle cx="178.0" cy="974.0" r="13.2"/></g><g fill="#C2506E"><circle cx="296.8" cy="954.2" r="13.2"/><circle cx="323.2" cy="954.2" r="13.2"/><circle cx="310.0" cy="974.0" r="13.2"/></g><g fill="#C2506E"><circle cx="428.8" cy="954.2" r="13.2"/><circle cx="455.2" cy="954.2" r="13.2"/><circle cx="442.0" cy="974.0" r="13.2"/></g><g fill="#C2506E"><circle cx="560.8" cy="954.2" r="13.2"/><circle cx="587.2" cy="954.2" r="13.2"/><circle cx="574.0" cy="974.0" r="13.2"/></g><g fill="#C2506E"><circle cx="692.8" cy="954.2" r="13.2"/><circle cx="719.2" cy="954.2" r="13.2"/><circle cx="706.0" cy="974.0" r="13.2"/></g><g fill="#C2506E"><circle cx="824.8" cy="954.2" r="13.2"/><circle cx="851.2" cy="954.2" r="13.2"/><circle cx="838.0" cy="974.0" r="13.2"/></g><g fill="#C2506E"><circle cx="956.8" cy="954.2" r="13.2"/><circle cx="983.2" cy="954.2" r="13.2"/><circle cx="970.0" cy="974.0" r="13.2"/></g>
<!-- THE WINE GLASS grown from the field -->
<g>
 <g stroke="#8A5A36" stroke-width="22" fill="none" stroke-linecap="round">
  <path d="M732,850 C700,846 672,832 654,808"/>
  <path d="M732,850 C764,846 792,832 810,808"/>
  <path d="M724,844 C712,820 712,800 722,782"/>
  <path d="M740,844 C752,820 752,800 742,782"/>
 </g>
 <path d="M722,844 C702,760 748,700 726,630 C710,576 744,540 730,470 C724,442 736,428 732,414" fill="none" stroke="#8A5A36" stroke-width="30" stroke-linecap="round"/>
 <path d="M746,844 C766,760 722,696 744,630 C760,576 728,540 742,470 C748,442 736,428 740,414" fill="none" stroke="#8A5A36" stroke-width="20" stroke-linecap="round" opacity="0.85"/>
 <path d="M716,700 C682,692 670,664 688,650 C702,640 716,654 706,668" fill="none" stroke="#8A5A36" stroke-width="11" stroke-linecap="round"/>
 <path d="M752,560 C786,552 798,524 780,512 C766,503 754,516 764,530" fill="none" stroke="#8A5A36" stroke-width="11" stroke-linecap="round"/>
 <path d="M700,752 C660,764 642,742 656,720 C674,696 706,712 700,752 Z" fill="#3C5F44"/>
 <path d="M768,620 C808,630 824,606 808,586 C790,564 762,582 768,620 Z" fill="#3C5F44"/>
 <g fill="#C2506E"><circle cx="692" cy="800" r="14"/><circle cx="718" cy="810" r="14"/><circle cx="704" cy="830" r="14"/></g>
 <path d="M600,180 L864,180 C864,344 808,436 732,458 C656,436 600,344 600,180 Z" fill="none" stroke="#F3E7D3" stroke-width="17"/>
 <path d="M618,252 C662,210 716,296 772,252 C802,230 828,244 848,254 C840,328 812,390 780,420 C748,450 716,450 684,420 C652,390 626,328 618,252 Z" fill="#C2506E"/>
 <path d="M632,266 C676,232 722,288 778,260" fill="none" stroke="#ffffff" stroke-width="13" stroke-linecap="round" opacity="0.35"/>
</g>
</svg>